<?xml version="1.0" encoding="utf-8"?>
<!-- Generator: Adobe Illustrator 25.0.1, SVG Export Plug-In . SVG Version: 6.00 Build 0)  -->
<svg version="1.1" id="Layer_1" xmlns="http://www.w3.org/2000/svg" xmlns:xlink="http://www.w3.org/1999/xlink" x="0px" y="0px"
	 viewBox="0 0 10 10.1" style="enable-background:new 0 0 10 10.1;" xml:space="preserve">
<style type="text/css">
	.st0{fill:#FAB03D;}
	.st1{fill:#F69320;}
</style>
<path class="st0" d="M0,5.7c0-1.1,0-2.1,0-3.2c0-0.1,0-0.3,0-0.4c0-0.8,0.3-1.5,1.1-1.9C2-0.1,2.7,0.1,3.3,0.8
	C4.2,1.6,5,2.5,5.9,3.3C6,3.4,6.1,3.5,6.2,3.7c0,0,0.1,0,0.1-0.1c0-0.6,0-1.2,0-1.8c0-0.9,0.5-1.5,1.4-1.7c0.8-0.2,1.6,0.1,2,0.9
	C9.9,1.3,10,1.7,10,2.1c0,2,0,4,0,6.1C10,9,9.8,9.6,9,10c-0.8,0.3-1.6,0.1-2.2-0.5C5.7,8.4,4.5,7.3,3.4,6.2s-1.6-1.3-3-0.6
	C0.4,5.6,0.2,5.6,0,5.7z"/>
<path class="st1" d="M3.8,8.3c0,1-0.8,1.8-1.9,1.8S0,9.3,0,8.2c0-1,0.9-1.9,2-1.9C3,6.3,3.8,7.1,3.8,8.3z"/>
</svg>
