<?xml version="1.0" encoding="utf-8"?>
<!-- Generator: Adobe Illustrator 25.0.1, SVG Export Plug-In . SVG Version: 6.00 Build 0)  -->
<svg version="1.1" id="Layer_1" xmlns="http://www.w3.org/2000/svg" xmlns:xlink="http://www.w3.org/1999/xlink" x="0px" y="0px"
	 viewBox="0 0 10 10" style="enable-background:new 0 0 10 10;" xml:space="preserve">
<style type="text/css">
	.st0{fill:#FFFFFF;}
	.st1{fill:#FAB03D;}
</style>
<path d="M9.7,0C9.1,0,8.6,0,8,0c-0.1,0-0.2,0-0.4,0.1c-0.5,0.3-1,0.6-1.5,1C6,1.2,5.9,1.3,5.9,1.5c0,0.5,0,1,0,1.6
	c0,0.1,0,0.2,0,0.3C5.8,3.2,5.8,3.2,5.8,3.2C5,2.2,4.2,1.2,3.5,0.2C3.4,0.1,3.2,0,3,0C2.5,0,2,0,1.5,0C1.1,0,0.7,0.1,0.3,0.4
	C0.1,0.5,0,0.7,0,0.9c0,2,0,3.9,0,5.9v2.8C0,10,0,10,0.4,10c0.5,0,1,0,1.6,0c0.2,0,0.3,0,0.5-0.1C2.8,9.6,3.2,9.3,3.7,9
	C4,8.9,4.1,8.7,4.1,8.3c0-0.4,0-0.7,0-1.1c0,0,0.1,0,0.1,0c0.1,0,0.1,0.1,0.2,0.2C4.9,8.2,5.5,9,6.2,9.8C6.3,9.9,6.4,10,6.6,10
	c0.5,0,1.1,0,1.6,0c0.1,0,0.3,0,0.4-0.1C9,9.7,9.4,9.4,9.8,9.2C9.9,9.1,10,8.9,10,8.8c0-2.8,0-5.7,0-8.5C10,0.1,9.9,0,9.7,0z
	 M6.2,1.6c0-0.1,0.1-0.3,0.2-0.4C6.8,1,7.2,0.7,7.7,0.4v5.2C7.6,5.4,7.5,5.3,7.3,5.2C7,4.8,6.7,4.3,6.4,3.9C6.3,3.8,6.2,3.7,6.2,3.6
	C6.2,2.9,6.2,2.3,6.2,1.6z M3.8,7.4c0,0.3,0,0.7,0,1c0,0.1-0.1,0.2-0.2,0.3c-0.5,0.3-0.9,0.6-1.4,1C2.1,9.7,2,9.8,1.9,9.8
	c-0.4,0-0.8,0-1.2,0c0.2-0.2,0.5-0.3,0.7-0.5C2.1,8.8,2.1,8.8,2.1,8V4.7c0,0,0,0,0.1,0c0.4,0.5,0.8,1,1.2,1.5
	C3.7,6.5,3.8,6.9,3.8,7.4z M8.4,9.7c0,0-0.1,0.1-0.2,0.1c-0.5,0-1,0-1.6,0c-0.1,0-0.2-0.1-0.3-0.2c-1.3-1.7-2.7-3.4-4-5.1
	C2.2,4.3,2.1,4.1,1.8,3.9c0,0.1,0,0.2,0,0.3c0,1.4,0,2.8,0,4.1c0,0.2-0.1,0.4-0.3,0.5C1.1,9,0.8,9.3,0.3,9.6c0-0.1,0-0.2,0-0.3V1
	c0-0.2,0.3-0.5,0.5-0.6c0.1,0,0.2,0,0.2,0.1c0.7,0.8,1.3,1.7,2,2.5c1.5,1.9,3,3.9,4.5,5.8C7.7,9,7.9,9.1,8.1,9.1c0.4,0,0.8,0,1.1,0
	c0,0,0,0,0,0.1C9,9.3,8.7,9.5,8.4,9.7z M9.7,8.4c0,0.4,0,0.4-0.4,0.4c-0.4,0-0.8,0-1.1,0C8,8.8,7.9,8.7,7.8,8.6
	C6.5,7,5.2,5.3,3.9,3.7C3.1,2.6,2.3,1.6,1.4,0.5c0,0-0.1-0.1-0.2-0.2h1c1,0,0.7-0.1,1.3,0.6C5,2.7,6.4,4.5,7.8,6.2
	c0,0,0.1,0.1,0.2,0.2C8,6.2,8,6.1,8,6V0.6c0-0.4,0-0.4,0.4-0.4c0.3,0,0.7,0,1,0c0.2,0,0.3,0.1,0.3,0.3V8.4z"/>
<path class="st0" d="M1.3,0.3c0.4,0,0.7,0,1,0c1,0,0.7-0.1,1.3,0.6C5,2.7,6.4,4.5,7.8,6.2c0,0,0.1,0.1,0.2,0.2C8,6.2,8,6.1,8,6
	c0-1.8,0-3.6,0-5.4c0-0.4,0-0.4,0.4-0.4c0.3,0,0.7,0,1,0c0.2,0,0.3,0.1,0.3,0.3c0,0.4,0,0.8,0,1.2c0,2.2,0,4.4,0,6.7
	c0,0.4,0,0.4-0.4,0.4c-0.4,0-0.8,0-1.1,0C8,8.8,7.9,8.7,7.8,8.6C6.5,7,5.2,5.3,3.9,3.7C3.1,2.6,2.3,1.6,1.4,0.5
	C1.4,0.5,1.4,0.4,1.3,0.3z"/>
<path class="st1" d="M9.3,9.1C9,9.3,8.7,9.5,8.4,9.7c0,0-0.1,0.1-0.2,0.1c-0.5,0-1,0-1.6,0c-0.1,0-0.2-0.1-0.3-0.2
	c-1.3-1.7-2.7-3.4-4-5.1C2.2,4.3,2.1,4.1,1.8,3.9c0,0.1,0,0.2,0,0.3c0,1.4,0,2.8,0,4.1c0,0.2-0.1,0.4-0.3,0.5C1.1,9,0.8,9.3,0.3,9.6
	c0-0.1,0-0.2,0-0.3V1c0-0.2,0.3-0.5,0.5-0.6c0.1,0,0.2,0,0.2,0.1c0.7,0.8,1.3,1.7,2,2.5c1.5,1.9,3,3.9,4.5,5.8
	C7.7,9,7.9,9.1,8.1,9.1C8.5,9,8.9,9.1,9.3,9.1C9.3,9.1,9.3,9.1,9.3,9.1z"/>
<path class="st0" d="M2.2,4.7c0.4,0.5,0.8,1,1.2,1.5c0.3,0.4,0.4,0.8,0.4,1.2c0,0.3,0,0.7,0,1c0,0.1-0.1,0.3-0.2,0.3
	C3.1,9.1,2.6,9.4,2.2,9.7C2.1,9.7,2,9.8,1.9,9.8c-0.4,0-0.8,0-1.2,0c0.2-0.2,0.5-0.3,0.7-0.5C2.1,8.8,2.1,8.8,2.1,8c0-1,0-2,0-3.1
	C2.1,4.9,2.1,4.8,2.2,4.7C2.1,4.7,2.2,4.7,2.2,4.7z"/>
<path class="st1" d="M7.7,0.4v5.2C7.6,5.4,7.5,5.3,7.3,5.2C7,4.8,6.7,4.3,6.4,3.9C6.3,3.8,6.2,3.7,6.2,3.6c0-0.7,0-1.3,0-2
	c0-0.1,0.1-0.3,0.2-0.4C6.8,1,7.2,0.7,7.7,0.4z"/>
</svg>
