<?xml version="1.0" encoding="utf-8"?>
<!-- Generator: Adobe Illustrator 25.0.1, SVG Export Plug-In . SVG Version: 6.00 Build 0)  -->
<svg version="1.1" id="Layer_1" xmlns="http://www.w3.org/2000/svg" xmlns:xlink="http://www.w3.org/1999/xlink" x="0px" y="0px"
	 viewBox="0 0 10 10" style="enable-background:new 0 0 10 10;" xml:space="preserve">
<style type="text/css">
	.st0{fill:#FAB03D;}
	.st1{fill:#009FE3;}
	.st2{fill:#FFFFFF;}
</style>
<g>
	<path class="st0" d="M5,0C2.2,0,0,2.2,0,5s2.2,5,5,5s5-2.2,5-5S7.8,0,5,0z M7.4,6.8c0,0.5-0.3,0.8-0.7,0.8C6.3,7.6,6,7.3,6,6.8v-2
		c0-0.6-0.2-1.1-0.9-1.1c-0.9,0-1.2,0.7-1.2,1.6v1.5c0,0.5-0.3,0.8-0.7,0.8c-0.4,0-0.7-0.3-0.7-0.8V3.2c0-0.5,0.3-0.8,0.7-0.8
		c0.4,0,0.7,0.3,0.7,0.7c0.4-0.6,1.2-0.7,1.5-0.7c0.4,0,2.2-0.1,2,2.1V6.8z"/>
	<path class="st1" d="M7.4,4.5v2.3c0,0.5-0.3,0.8-0.7,0.8C6.3,7.6,6,7.3,6,6.8v-2c0-0.6-0.2-1.1-0.9-1.1c-0.9,0-1.2,0.7-1.2,1.6v1.5
		c0,0.5-0.3,0.8-0.7,0.8c-0.4,0-0.7-0.3-0.7-0.8V3.2c0-0.5,0.3-0.8,0.7-0.8c0.4,0,0.7,0.3,0.7,0.7c0.4-0.6,1.2-0.7,1.5-0.7
		C5.8,2.4,7.6,2.3,7.4,4.5z"/>
	<path class="st2" d="M7.4,4.5v2.3c0,0.5-0.3,0.8-0.7,0.8C6.3,7.6,6,7.3,6,6.8v-2c0-0.6-0.2-1.1-0.9-1.1c-0.9,0-1.2,0.7-1.2,1.6v1.5
		c0,0.5-0.3,0.8-0.7,0.8c-0.4,0-0.7-0.3-0.7-0.8V3.2c0-0.5,0.3-0.8,0.7-0.8c0.4,0,0.7,0.3,0.7,0.7c0.4-0.6,1.2-0.7,1.5-0.7
		C5.8,2.4,7.6,2.3,7.4,4.5z"/>
</g>
</svg>
